<?xml version="1.0"?>
<svg xmlns="http://www.w3.org/2000/svg" xmlns:xlink="http://www.w3.org/1999/xlink" xmlns:svgjs="http://svgjs.com/svgjs" version="1.1" width="512" height="512" x="0" y="0" viewBox="0 0 511.961 511.961" style="enable-background:new 0 0 512 512" xml:space="preserve" class=""><g><path xmlns="http://www.w3.org/2000/svg" d="m20.504 159.031c-4.885-1.478-10.091.953-12.094 5.64-.718 1.68-17.405 41.524-1.697 75.219 13.685 29.331 46.716 42.844 56.189 46.199.956 5.342 2.141 10.633 3.559 15.862-27.427-10.135-56.941-3.463-58.422-3.117-4.963 1.161-8.259 5.869-7.651 10.93.218 1.813 5.684 44.662 36.134 65.979 26.661 18.668 70.99 15.189 78.24 9.529 4.986 4.991 10.247 9.694 15.775 14.091-22.082 9.401-37.149 25.976-38.02 26.948-3.399 3.797-3.399 9.544 0 13.341 1.219 1.361 30.269 33.33 67.45 33.33s66.231-31.969 67.45-33.33c.151-.168.287-.345.424-.521l26.736 3.753c.92.13 1.859.13 2.779 0l26.763-3.757c.138.177.275.355.427.524 1.219 1.361 30.268 33.33 67.45 33.33s66.231-31.969 67.45-33.33c3.399-3.797 3.399-9.544 0-13.341-.871-.972-15.946-17.556-38.037-26.956 5.53-4.399 10.792-9.101 15.778-14.094 1.114.873 2.423 1.527 3.881 1.868 22.109 5.172 53.495 3.233 74.373-11.386 30.45-21.318 35.915-64.166 36.133-65.98.607-5.061-2.688-9.769-7.651-10.929-1.483-.347-31.017-7.023-58.455 3.13 1.418-5.23 2.605-10.521 3.562-15.865 9.434-3.338 42.52-16.849 56.219-46.212 15.707-33.692-.98-73.537-1.698-75.216-2.005-4.688-7.217-7.119-12.093-5.64-1.294.392-24.212 7.516-42.412 24.839-1.881-12.568-4.667-24.991-8.334-37.158 3.625-14.315 7.139-38.852-3.022-60.636-15.73-33.742-57.052-46.178-58.803-46.691-4.844-1.421-9.988.996-11.991 5.631-.719 1.665-17.429 41.159-1.712 74.874 15.718 33.69 56.966 46.513 58.714 47.042.538.163 1.081.274 1.622.344 3.191 13.629 5.21 27.532 6.028 41.534-9.477 22.975-4.81 48.106-.58 62.447-1.877 17.224-6.407 33.951-13.479 49.773-7.301 8.212-13.257 18.475-17.732 30.548-12.044 16.484-26.782 30.439-43.861 41.529-1.29-.077-2.588-.126-3.899-.126-25.11 0-46.523 14.585-58.214 24.543-2.777.485-.202.043-37.816 5.359-20.964-2.963-35.244-4.907-37.773-5.353-11.601-9.888-33.042-24.549-58.227-24.549-1.32 0-2.627.05-3.926.128-17.041-11.07-31.756-24.993-43.795-41.433-4.498-12.153-10.489-22.472-17.833-30.711-7.046-15.789-11.561-32.473-13.437-49.649 4.246-14.37 8.929-39.55-.591-62.571.816-13.963 2.836-27.844 6.028-41.471.542-.07 1.083-.181 1.622-.344 1.748-.529 42.996-13.352 58.715-47.045 15.716-33.712-.994-73.206-1.713-74.871-2.002-4.635-7.146-7.051-11.991-5.631-1.751.513-43.072 12.949-58.802 46.689-10.163 21.787-6.649 46.326-3.023 60.64-3.668 12.171-6.453 24.585-8.334 37.132-18.198-17.303-41.09-24.421-42.383-24.812zm469.29 157.861c-2.988 11.736-10.124 31.477-25.823 42.468-15.614 10.932-36.675 10.899-48.757 9.713 4.125-16.101 12.251-32.959 25.808-42.47 15.621-10.937 36.693-10.896 48.772-9.711zm-1.543-135.158c3.28 11.66 6.971 32.329-1.128 49.7-8.056 17.269-26.312 27.772-37.367 32.787-3.01-10.816-7.02-31.97.998-49.438.034-.073.066-.147.099-.221.006-.012.011-.023.017-.035 8.054-17.276 26.325-27.781 37.381-32.793zm-104.941-70.298c-8.048-17.262-4.36-37.832-1.103-49.405 11.037 4.899 29.309 15.236 37.356 32.498 8.158 17.489 4.203 38.636 1.12 49.685-.004.012-.007.024-.011.037-11.037-4.978-29.255-15.436-37.362-32.815zm-31.314 341.546c-19.055 0-36.286-12.104-45.507-20.009 9.375-8.047 26.495-19.991 45.507-19.991 19.066 0 36.307 12.119 45.52 20.019-9.179 7.9-26.349 19.981-45.52 19.981zm-192.03 0c-19.066 0-36.307-12.119-45.52-20.019 9.179-7.901 26.349-19.981 45.52-19.981 19.063 0 36.301 12.115 45.519 20.019-9.178 7.901-26.348 19.981-45.519 19.981zm-135.127-221.546c-8.055-17.276-4.36-38.026-1.095-49.717 11.023 4.973 29.188 15.406 37.313 32.731.04.095.082.188.125.282 8.05 17.491 4.036 38.67 1.016 49.516-11.041-4.98-29.253-15.437-37.359-32.812zm23.152 127.924c-15.6-10.921-22.774-30.711-25.795-42.47 12.089-1.186 33.141-1.211 48.746 9.715 13.559 9.485 21.729 26.537 25.804 42.467-12.091 1.187-33.145 1.217-48.755-9.712zm44.378-264.833c8.049-17.264 26.324-27.601 37.354-32.497 3.261 11.58 6.945 32.145-1.101 49.403-8.056 17.267-26.311 27.771-37.372 32.789-.001-.003-.002-.006-.003-.009-3.082-11.048-7.037-32.195 1.122-49.686z" fill="#ffffff" data-original="#000000" style=""/><circle xmlns="http://www.w3.org/2000/svg" cx="315.966" cy="312.982" r="10" fill="#ffffff" data-original="#000000" style=""/><path xmlns="http://www.w3.org/2000/svg" d="m340.699 288.247c3.906 3.906 10.236 3.906 14.143 0l28.195-28.195c3.821-3.816 3.959-10.188 0-14.143l-60-60c-1.896-1.894-4.46-2.93-7.076-2.929h-119.99c-2.653-.001-5.207 1.061-7.076 2.929l-60 60c-.034.034-.062.071-.095.105-3.883 3.995-3.68 10.27.095 14.038l120 120c3.916 3.916 10.244 3.887 14.143 0l28.195-28.195c3.905-3.905 3.905-10.237 0-14.142s-10.235-3.905-14.143 0l-11.124 11.124v-85.858h85.857l-11.124 11.124c-3.905 3.905-3.905 10.237 0 14.142zm-144.733-81.123 35.857 35.857h-71.715zm24.142-4.142h71.715l-35.857 35.857zm25.858 60v85.858l-85.857-85.858zm70-55.858 35.857 35.857h-71.715z" fill="#ffffff" data-original="#000000" style=""/></g></svg>
